<svg width="131" height="139" viewBox="0 0 131 139" fill="none" xmlns="http://www.w3.org/2000/svg">
<path d="M130.825 72.757V0H88.2328V75.395C88.2559 78.5702 87.4692 81.699 85.9469 84.4856C84.4247 87.2722 82.2171 89.6248 79.5328 91.321C71.2698 96.527 62.1068 97.066 54.3988 92.812C50.8235 90.8386 47.8425 87.943 45.766 84.4267C43.6895 80.9103 42.5934 76.9017 42.5918 72.818V0H-0.000219035V33.818H24.8728V76.152C24.8541 84.7924 27.9025 93.1589 33.4752 99.7621C39.0479 106.365 46.7832 110.776 55.3038 112.21L58.4578 112.747C59.0166 111.793 59.7656 110.965 60.6583 110.313C61.551 109.662 62.5683 109.201 63.6468 108.959C64.8641 108.716 66.1186 108.726 67.3316 108.99C68.5445 109.255 69.6899 109.766 70.6958 110.494C71.1406 110.802 71.525 111.19 71.8298 111.637C72.7904 112.925 73.3709 114.457 73.5054 116.058C73.6399 117.66 73.3231 119.267 72.5908 120.697C71.8668 122.074 70.7615 123.214 69.4069 123.98C68.0523 124.745 66.5059 125.105 64.9525 125.015C63.399 124.925 61.9045 124.389 60.6474 123.472C59.3902 122.555 58.4239 121.296 57.8638 119.844C34.5958 116.122 17.7148 96.027 17.7148 72.039V40.972H-0.000219035V74.86C-0.0350164 86.7004 3.30376 98.3057 9.62528 108.317C15.9468 118.329 24.9895 126.333 35.6948 131.392C48.8148 137.474 62.2688 139.486 75.6948 137.358L81.3368 136.212C83.3542 135.698 85.3444 135.083 87.2998 134.368V106.868L87.6478 106.639C93.2689 102.953 97.8848 97.9269 101.079 92.0128C104.274 86.0988 105.947 79.4828 105.948 72.761V28.278C104.782 27.7222 103.765 26.8975 102.98 25.8718C102.195 24.8461 101.665 23.6486 101.433 22.378C101.204 21.0093 101.315 19.6054 101.756 18.2897C102.197 16.974 102.955 15.7869 103.963 14.833C104.286 14.5033 104.657 14.2233 105.063 14.002C106.349 13.241 107.816 12.8366 109.311 12.8304C110.805 12.8243 112.275 13.2166 113.568 13.967C114.782 14.6879 115.789 15.711 116.49 16.9368C117.191 18.1625 117.562 19.549 117.568 20.961C117.566 22.4588 117.148 23.9266 116.361 25.2009C115.574 26.4752 114.448 27.5059 113.11 28.178V72.759C113.129 80.0594 111.456 87.2649 108.22 93.8091C104.985 100.353 100.275 106.058 94.4628 110.475V131.323C105.353 125.886 114.519 117.532 120.94 107.191C127.361 96.851 130.785 84.9308 130.83 72.759" fill="#E43641"/>
</svg>
